<svg width="380" height="394" viewBox="0 0 380 394" fill="none" xmlns="http://www.w3.org/2000/svg">
<g filter="url(#filter0_d_232_1923)">
<path fill-rule="evenodd" clip-rule="evenodd" d="M144.791 105.452C167.133 105.383 188.027 101.435 210.357 103.688C235.882 106.263 263.222 104.932 284.332 119.531C306.693 134.995 318.367 160.22 327.575 184.754C337.631 211.548 346.64 239.937 339.622 266.847C332.305 294.9 315.525 322.833 288.299 335.348C261.91 347.479 229.913 327.355 200.45 330.824C167.324 334.724 135.808 374.197 106.89 356.704C77.2375 338.767 99.4403 292.636 86.4149 261.842C76.0005 237.22 46.884 222.735 39.4541 197.276C30.4355 166.374 16.3697 125.173 40.4126 104.214C65.9576 81.9455 109.302 105.562 144.791 105.452Z" fill="#EF5858"/>
</g>
<path fill-rule="evenodd" clip-rule="evenodd" d="M140.91 91.3867C162.728 89.1753 182.921 83.1447 204.854 83.304C229.926 83.486 256.557 79.5077 277.974 92.3817C300.66 106.019 313.443 130.638 323.778 154.79C335.066 181.167 345.417 209.272 340.034 237.402C334.421 266.728 319.559 296.838 293.651 312.217C268.539 327.124 236.186 309.656 207.599 316.018C175.456 323.172 146.832 366.47 117.63 351.391C87.6869 335.93 106.851 286.731 92.4442 256.558C80.9257 232.433 51.6946 220.442 43.0453 195.176C32.5467 164.509 16.5552 123.815 38.8925 100.125C62.6255 74.9554 106.253 94.8994 140.91 91.3867Z" fill="#FFDE69"/>
<path d="M167.877 168.229C167.877 168.229 166.678 170.273 167.877 171.972H142.61V168.229H167.877Z" fill="#D0F3F1"/>
<path d="M168.291 172.101C168.291 172.187 168.248 172.274 168.182 172.338C168.117 172.403 168.03 172.446 167.943 172.446H130.358C129.682 172.446 129.115 171.908 129.115 171.219V169.111C129.115 168.444 129.66 167.885 130.358 167.885H167.943C168.139 167.885 168.291 168.035 168.291 168.229C168.291 168.423 168.139 168.573 167.943 168.573H144.594C144.136 168.573 143.766 168.939 143.766 169.391V170.961C143.766 171.413 144.136 171.779 144.594 171.779H167.943C168.139 171.757 168.291 171.908 168.291 172.101Z" fill="#EE504F"/>
<path d="M168.291 172.037C168.313 172.144 168.27 172.274 168.204 172.338C168.139 172.403 168.051 172.446 167.964 172.446H144.398C143.613 172.446 142.981 171.822 142.981 171.047V169.283C142.981 168.509 143.613 167.885 144.398 167.885H167.964C168.139 167.885 168.291 168.014 168.313 168.186C168.335 168.38 168.182 168.552 167.964 168.552H144.616C144.158 168.552 143.787 168.917 143.787 169.369V170.94C143.787 171.391 144.158 171.757 144.616 171.757H167.964C168.095 171.757 168.248 171.865 168.291 172.037Z" fill="#D34848"/>
<path d="M167.725 179.76C167.725 179.76 166.482 182.88 167.725 185.612H148.736V179.76H167.725Z" fill="#D0F3F1"/>
<path d="M168.4 185.698C168.4 185.827 168.357 185.956 168.27 186.042C168.182 186.128 168.073 186.171 167.943 186.171H127.851C126.805 186.171 125.933 185.332 125.933 184.278V181.008C125.933 179.975 126.783 179.115 127.851 179.115H167.943C168.182 179.115 168.4 179.308 168.4 179.545C168.4 179.803 168.204 179.997 167.964 179.997H150.938C150.088 179.997 149.39 180.685 149.39 181.524V183.697C149.39 184.536 150.088 185.225 150.938 185.225H167.943C168.182 185.289 168.4 185.461 168.4 185.698Z" fill="#197A83"/>
<path d="M168.4 185.698C168.4 185.827 168.357 185.956 168.27 186.042C168.183 186.128 168.074 186.171 167.943 186.171H150.524C149.347 186.171 148.387 185.225 148.387 184.063V181.245C148.387 180.083 149.347 179.136 150.524 179.136H167.943C168.183 179.136 168.4 179.33 168.4 179.567C168.4 179.825 168.204 180.018 167.964 180.018H150.938C150.088 180.018 149.39 180.707 149.39 181.546V183.719C149.39 184.558 150.088 185.246 150.938 185.246H167.943C168.183 185.289 168.4 185.461 168.4 185.698Z" fill="#156468"/>
<path d="M166.22 181.159H155.625V181.223H166.22V181.159Z" fill="#373133"/>
<path d="M161.708 181.159L162.492 184.644L163.299 183.375V181.417L161.708 181.159Z" fill="#38B0A9"/>
<path d="M165.632 182.062V184.644L164.084 183.504L162.471 184.644V182.062C162.471 181.438 161.708 181.159 161.708 181.159H165.108C165.632 181.309 165.632 181.976 165.632 182.062Z" fill="#6D68E0"/>
<path d="M165.632 182.062H162.493V182.041C162.493 181.417 161.729 181.137 161.729 181.137H165.13C165.632 181.309 165.632 181.976 165.632 182.062Z" fill="#5A5ABA"/>
<path d="M127.786 172.769C127.786 172.769 129.05 176.168 127.786 178.728H152.704V172.769H127.786Z" fill="#D0F3F1"/>
<path d="M169.861 174.662V176.899C169.861 178.147 168.836 179.158 167.572 179.158H127.829C127.633 179.158 127.481 179.007 127.481 178.814V178.792C127.481 178.599 127.633 178.448 127.829 178.448H150.415C151.309 178.448 152.05 177.716 152.05 176.834V174.748C152.05 173.866 151.309 173.134 150.415 173.134H127.829C127.72 173.134 127.633 173.091 127.568 173.027C127.502 172.962 127.459 172.854 127.459 172.747C127.481 172.553 127.633 172.424 127.829 172.424H167.572C168.836 172.403 169.861 173.414 169.861 174.662Z" fill="#F1884F"/>
<path d="M153.074 174.446V177.136C153.074 178.254 152.159 179.158 151.025 179.158H127.851C127.655 179.158 127.502 179.007 127.502 178.814V178.792C127.502 178.599 127.655 178.448 127.851 178.448H150.437C151.33 178.448 152.072 177.717 152.072 176.834V174.748C152.072 173.866 151.33 173.134 150.437 173.134H127.851C127.742 173.134 127.655 173.091 127.589 173.027C127.524 172.962 127.48 172.854 127.48 172.747C127.502 172.553 127.655 172.424 127.851 172.424H151.025C152.159 172.403 153.074 173.328 153.074 174.446Z" fill="#D37146"/>
<path d="M142 176.749H131.405V176.813H142V176.749Z" fill="#373133"/>
<path d="M139.514 176.727H138.163V178.427H139.514V176.727Z" fill="#38B0A9"/>
<path d="M138.73 178.211V183.611L137.247 182.299L135.83 183.611V178.427L138.73 178.211Z" fill="#A82329"/>
<path d="M139.514 176.727H136.637C136.637 176.727 136.637 177.996 135.83 178.427H138.708C138.708 178.427 139.514 178.211 139.514 176.727Z" fill="#EE504F"/>
<path d="M162.318 161.388C162.318 161.388 161.337 164.12 162.318 167.132H137.334V161.495L162.318 161.388Z" fill="#D0F3F1"/>
<path d="M138.49 160.592H162.362C162.645 160.592 162.863 160.807 162.863 161.087C162.863 161.366 162.645 161.581 162.362 161.581H138.73C138.054 161.581 137.487 162.119 137.487 162.808V165.669C137.487 166.336 138.032 166.895 138.73 166.895H162.362C162.645 166.895 162.863 167.11 162.863 167.39V167.433C162.863 167.713 162.645 167.928 162.362 167.928H138.49C137.509 167.928 136.702 167.132 136.702 166.164V162.399C136.702 161.388 137.509 160.592 138.49 160.592Z" fill="#6D68E0"/>
<path d="M159.135 165.196H148.54V165.26H159.135V165.196Z" fill="#373133"/>
<path d="M155.691 165.196H154.579V166.874H155.691V165.196Z" fill="#38B0A9"/>
<path d="M155.342 166.68V171.069L156.672 169.757L158.023 171.069V166.895L155.342 166.68Z" fill="#156468"/>
<path d="M154.579 165.196H157.217C157.217 165.196 157.217 166.465 158.023 166.874H155.385C155.385 166.895 154.579 166.68 154.579 165.196Z" fill="#197A83"/>
<path d="M48.4093 164.4C48.4093 164.4 46.4037 192.841 81.2194 188.086L83.225 192.819C83.225 192.819 93.1226 174.146 76.8157 171.091C73.5674 170.488 63.6044 170.703 63.6044 170.703L48.4093 164.4Z" fill="#5CC2AD"/>
<path d="M53.6194 217.323C53.6194 217.323 49.6081 219.69 42.4139 229.952L39.6016 224.423L49.2157 214.161L53.6194 217.323Z" fill="black"/>
<path d="M42.414 229.952C42.414 229.952 34.4132 221.647 38.8169 214.161C38.8169 214.161 42.8282 207.448 50.0225 208.244C50.0225 208.244 62.427 194.82 77.6439 203.103C77.6439 203.103 80.8487 220.873 50.4367 219.302C50.4149 219.281 40.4084 219.281 42.414 229.952Z" fill="#5CC2AD"/>
<path d="M42.0869 230.016C40.4083 222.573 42.5883 216.957 44.7248 213.58C47.0357 209.923 49.6954 208.029 49.8262 207.965L50.1968 208.503C50.175 208.524 47.5153 210.396 45.2698 213.967C43.2206 217.237 41.1059 222.68 42.7191 229.887L42.0869 230.016Z" fill="#17311D"/>
<path d="M92.6428 207.255C92.6428 207.255 95.4551 198.176 104.241 198.951C104.241 198.951 109.081 191.959 118.259 198.155C121.463 200.328 124.254 202.888 123.055 212.762C123.055 212.762 120.046 207.836 112.242 207.621C106.944 207.513 92.6428 207.255 92.6428 207.255Z" fill="#5CC2AD"/>
<path d="M122.75 212.87C120.199 205.34 115.272 202.07 111.566 200.65C107.555 199.123 104.132 199.359 104.088 199.359L104.045 198.714C104.197 198.692 107.664 198.456 111.806 200.026C115.621 201.489 120.744 204.867 123.36 212.633L122.75 212.87Z" fill="#17311D"/>
<path d="M84.8381 226.015H71.6269C68.8146 226.015 66.3293 227.413 64.6724 228.682C63.2554 229.758 62.427 230.748 62.427 230.748C62.1654 227.542 63.5388 224.53 65.4355 222.422C66.3511 221.411 67.3976 220.615 68.4222 220.098C80.8704 213.945 84.8381 226.015 84.8381 226.015Z" fill="#197A83"/>
<path d="M79.6279 226.036C78.1019 218.227 71.9323 218.958 71.8887 218.98L71.8232 218.549C71.8886 218.549 78.4507 217.753 80.0639 225.95L79.6279 226.036Z" fill="#020403"/>
<path d="M80.1588 224.835L79.0835 225.012L82.7303 246.659L83.8056 246.483L80.1588 224.835Z" fill="#22452A"/>
<path d="M86.5821 247.012L85.4921 246.861C87.2144 235.007 86.8656 228.295 86.2988 223.304C85.3177 214.656 82.5272 209.772 80.3472 207.169C78.0145 204.372 75.878 203.619 75.8562 203.598L76.2268 202.586C76.314 202.629 78.6031 203.425 81.132 206.416C83.421 209.127 86.3642 214.225 87.3888 223.175C87.9556 228.252 88.3044 235.029 86.5821 247.012Z" fill="#5CC2AD"/>
<path d="M86.495 224.165C84.9254 204.178 82.1349 188.129 82.0913 187.979L83.1595 187.785C83.1813 187.936 85.9936 204.028 87.5633 224.078L86.495 224.165Z" fill="#5CC2AD"/>
<path d="M91.5746 248.044L90.5063 247.829C97.221 216.656 97.3082 204.996 97.3082 204.888H98.3982C98.3764 204.996 98.311 216.742 91.5746 248.044Z" fill="#5CC2AD"/>
<path d="M83.1159 192.69C83.0941 192.561 81.0231 179.782 72.0848 175.565C69.6431 174.404 62.5361 170.854 62.4707 170.832L62.7759 170.251C62.8413 170.294 69.9483 173.844 72.3682 174.984C81.6117 179.352 83.7263 192.475 83.7481 192.604L83.1159 192.69Z" fill="#17311D"/>
<path d="M64.6724 228.682C63.2554 229.758 62.427 230.748 62.427 230.748C62.1654 227.542 63.5388 224.53 65.4355 222.422C65.043 223.928 64.498 226.445 64.6724 228.682Z" fill="#020403"/>
<path d="M67.8337 244.774H106.247L100.644 283.864H73.4366L67.8337 244.774Z" fill="#197A83"/>
<path d="M131.361 188.71L104.873 283.843H99.7935L126.303 188.71H131.361Z" fill="#38B0A9"/>
<path d="M126.303 188.71L152.791 283.843H157.871L131.361 188.71H126.303Z" fill="#38B0A9"/>
<path d="M287.127 188.71H239.906V283.843H287.127V188.71Z" fill="#38B0A9"/>
<path d="M147.995 188.71L174.505 283.843H179.562L153.074 188.71H147.995Z" fill="#38B0A9"/>
<path d="M149.979 188.71L176.466 283.843H181.546L155.036 188.71H149.979Z" fill="#D0F3F1"/>
<path d="M153.074 188.71L126.565 283.843H121.507L147.995 188.71H153.074Z" fill="#38B0A9"/>
<path d="M155.036 188.71L128.549 283.843H123.469L149.979 188.71H155.036Z" fill="#D0F3F1"/>
<path d="M137.857 186.214V191.205H286.124V283.843H328.701V186.214H137.857Z" fill="#D0F3F1"/>
<path d="M144.332 186.214H111.348V191.227H144.332V186.214Z" fill="#38B0A9"/>
<path d="M289.241 193.443V281.067H326.455V193.443H289.241ZM325.322 279.949H290.375V263.684H301.646V266.61H315.141V263.684H325.343V279.949H325.322ZM325.322 262.566H290.375V245.312H301.646V248.238H315.141V245.312H325.343V262.566H325.322ZM325.322 244.215H290.375V228.445H301.646V231.264H315.141V228.445H325.343V244.215H325.322ZM325.322 227.327H290.375V211.665H301.646V214.591H315.141V211.665H325.343V227.327H325.322ZM325.322 210.546H290.375V194.54H301.646V197.315H315.141V194.54H325.343V210.546H325.322Z" fill="#38B0A9"/>
<path d="M192.773 168.875L190.157 186.3H203.02L205.636 168.875H192.773Z" fill="#373133"/>
<path d="M163.451 130.344L166.089 168.681C166.198 170.316 167.572 171.585 169.229 171.585H229.987C231.818 171.585 233.257 170.058 233.126 168.272L230.488 129.935C230.379 128.3 229.006 127.031 227.349 127.031H166.591C164.781 127.031 163.342 128.558 163.451 130.344Z" fill="#373133"/>
<path d="M195.171 168.875L192.555 186.3H205.418L208.034 168.875H195.171Z" fill="#6D68E0"/>
<path d="M232.625 171.607H171.866C170.21 171.607 168.836 170.337 168.727 168.702L168.4 164.034L166.067 130.365C165.937 128.558 167.397 127.031 169.207 127.031H229.965C231.622 127.031 232.996 128.3 233.105 129.935L235.459 164.034L235.743 168.272C235.895 170.079 234.456 171.607 232.625 171.607Z" fill="#6D68E0"/>
<path d="M171.67 163.797L169.577 133.119C169.468 131.57 170.776 130.258 172.411 130.258H227.327C228.832 130.258 230.074 131.355 230.162 132.753L232.276 163.797H171.67Z" fill="white"/>
<path d="M187.65 183.719H173.153V186.3H187.65V183.719Z" fill="#373133"/>
<path d="M225.583 183.719H186.887V186.3H225.583V183.719Z" fill="#6D68E0"/>
<path d="M184.249 167.498H175.224V173.306C175.224 173.306 175.224 175.587 177.535 175.802H186.778C186.778 175.802 184.773 175.694 184.358 173.414L184.249 167.498Z" fill="#FC2B45"/>
<path d="M195.368 165.131H186.342V170.94C186.342 170.94 186.342 173.22 188.653 173.436H197.896C197.896 173.436 195.891 173.328 195.477 171.048L195.368 165.131Z" fill="#FD9E28"/>
<path d="M183.223 130.205L181.7 130.302L183.879 163.86L185.402 163.764L183.223 130.205Z" fill="#D0F3F1"/>
<path d="M214.835 130.205L213.312 130.302L215.492 163.86L217.015 163.764L214.835 130.205Z" fill="#D0F3F1"/>
<path d="M186.342 136.497L186.996 145.963H211.413L210.759 136.497H186.342Z" fill="#D0F3F1"/>
<path d="M217.081 136.841L217.364 140.799H227.545L227.262 136.841H217.081Z" fill="#D0F3F1"/>
<path d="M217.735 145.231L218.018 149.19H228.199L227.916 145.231H217.735Z" fill="#D0F3F1"/>
<path d="M218.389 153.622L218.673 157.58H228.853L228.57 153.622H218.389Z" fill="#D0F3F1"/>
<path d="M187.214 150.265L187.868 159.731H212.285L211.631 150.265H187.214Z" fill="#D0F3F1"/>
<path d="M195.28 132.947H186.342V134.022H195.28V132.947Z" fill="#D0F3F1"/>
<path d="M180.238 133.055H171.3V134.13H180.238V133.055Z" fill="#D0F3F1"/>
<path d="M180.456 136.066H171.518V137.142H180.456V136.066Z" fill="#D0F3F1"/>
<path d="M180.674 139.078H171.736V140.154H180.674V139.078Z" fill="#D0F3F1"/>
<path d="M180.892 142.09H171.954V143.166H180.892V142.09Z" fill="#D0F3F1"/>
<path d="M181.11 145.102H172.172V146.178H181.11V145.102Z" fill="#D0F3F1"/>
<path d="M222.531 133.27H216.863V134.345H222.531V133.27Z" fill="#D0F3F1"/>
<path d="M268.727 143.489L268.749 137.271C268.749 137.271 258.415 139.896 263.32 120.641C263.32 120.641 269.926 113.8 278.145 120.641L279.017 134.625L280.194 142.865L268.727 143.489Z" fill="#FCBB9D"/>
<path d="M283.486 120.727C284.336 112.897 279.954 113.822 279.954 113.822C275.551 107.604 273.327 111.305 273.327 111.305C269.621 108.034 268.466 111.197 268.466 111.197C264.825 109.713 264.171 112.897 264.171 112.897C260.748 112.251 260.944 115.435 260.944 115.435C259.658 115.65 259.396 117.307 259.44 117.974C259.745 122.233 262.819 122.556 264.52 122.406L264.912 127.59C264.956 128.085 265.435 128.408 265.915 128.257C266.198 128.171 266.394 127.934 266.46 127.655C266.482 127.59 266.482 127.526 266.482 127.483C266.852 125.633 269.883 124.213 270.319 127.483C270.319 127.483 270.646 131.699 268.4 131.785C268.4 131.785 270.82 136.82 276.575 135.765C277.535 135.593 283.835 134.023 283.334 123.202C283.53 121.76 283.486 120.727 283.486 120.727Z" fill="#373133"/>
<path d="M259.375 170.058L250.959 178.19C250.196 178.921 249.237 179.416 248.191 179.61L220.896 184.795L213.702 185.225C213.702 185.225 215.01 183.504 216.754 183.073H211.958L207.184 185.117C206.617 185.354 205.963 185.139 205.679 184.601C205.418 184.106 205.549 183.482 206.006 183.116L211.086 179.309C211.914 178.685 212.961 178.384 214.007 178.491L220.765 179.115L223.251 179.997L245.204 170.058L255.559 159.839L259.375 170.058Z" fill="#CC8772"/>
<path d="M211.195 264.804L206.813 274.42L204.96 278.486H196.763L198.856 272.484L201.494 264.933L211.195 264.804Z" fill="#FCBB9D"/>
<path d="M206.224 275.733C205.505 276.464 202.584 278.895 197.766 275.582C197.722 275.56 197.679 275.539 197.613 275.582L184.293 282.617C183.661 282.94 183.901 283.886 184.62 283.886H206.355C207.358 283.886 208.099 282.961 207.881 282.015L206.464 275.84C206.442 275.69 206.312 275.647 206.224 275.733Z" fill="#4F216C"/>
<path d="M243.46 264.803L240.43 274.484L239.187 278.486H230.99L232.102 272.914L233.759 264.717L243.46 264.803Z" fill="#FCBB9D"/>
<path d="M243.46 264.803L240.43 274.484L232.102 272.914L233.759 264.717L243.46 264.803Z" fill="#E6A68A"/>
<path d="M240.015 275.733C239.296 276.464 236.375 278.895 231.557 275.582C231.513 275.56 231.47 275.539 231.404 275.582L218.084 282.617C217.452 282.94 217.692 283.886 218.411 283.886H240.146C241.149 283.886 241.89 282.961 241.672 282.015L240.255 275.84C240.233 275.69 240.103 275.647 240.015 275.733Z" fill="#4F216C"/>
<path d="M240.735 209.535L230.816 271.387L245.204 272.247L261.664 209.535H240.735Z" fill="#311547"/>
<path d="M211.195 264.804L206.813 274.42L198.856 272.484L201.494 264.933L211.195 264.804Z" fill="#E6A68A"/>
<path d="M253.924 171.564L248.954 175.694L246.512 177.717C245.923 178.211 245.226 178.534 244.485 178.706L210.977 186.193C208.317 186.645 205.614 185.548 203.674 184.429C203.02 184.321 202.387 184.235 201.777 184.149C200.752 186.279 197.896 187.075 197.896 187.075L199.117 182.708C199.292 182.105 199.684 181.611 200.229 181.309L204.524 178.9C205.592 178.298 206.878 178.276 207.968 178.792L209.538 179.545L239.209 169.477L243.678 164.615L246.12 161.947L253.924 171.564Z" fill="#FCBB9D"/>
<path d="M253.924 171.564L248.954 175.694L243.678 164.658L246.12 161.99L253.924 171.564Z" fill="#E6A68A"/>
<path d="M259.44 193.185L257.042 196.197L234.042 198.929C228.199 199.618 223.251 203.49 221.223 208.933L198.333 270.096L213.811 272.462L238.053 220.894C238.053 220.894 296.981 230.339 290.44 200.048L259.44 193.185Z" fill="#4F216C"/>
<path d="M264.389 141.961C264.236 142.004 259.178 144.113 256.344 147.813C251.504 154.138 244.419 163.324 244.419 163.324L252.224 173.715L255.777 170.23L255.341 188.086L252.834 196.304C252.834 196.304 256.933 199.402 260.465 201.037C274.417 207.491 293.166 204.91 293.166 204.91L290.898 161.818C290.898 161.818 291.487 146.608 285.317 141.875C285.317 141.875 277.883 138.11 264.389 141.961Z" fill="#F1884F"/>
<path d="M259.194 167.476L251.997 173.504L252.421 173.996L259.617 167.968L259.194 167.476Z" fill="#373133"/>
<path d="M269.73 242.58H265.958V268.245H269.73V242.58Z" fill="#D0F3F1"/>
<path d="M262.885 229.371V240.127C262.885 242.838 265.108 245.032 267.855 245.032C270.602 245.032 272.826 242.838 272.826 240.127V229.371H262.885Z" fill="#D0F3F1"/>
<path d="M252.268 225.907V226.767C252.268 228.768 253.903 230.382 255.93 230.382H284.772C286.8 230.382 288.435 228.768 288.435 226.767V225.907H252.268Z" fill="#D0F3F1"/>
<path d="M265.871 220.873V227.348H293.253C295.062 227.348 296.523 225.907 296.523 224.121C296.523 222.335 295.062 220.894 293.253 220.894H265.871V220.873Z" fill="#D34848"/>
<path d="M242.544 224.1C242.544 225.885 244.005 227.327 245.815 227.327H265.304C267.114 227.327 268.575 225.885 268.575 224.1C268.575 222.314 267.114 220.873 265.304 220.873H245.815C244.005 220.873 242.544 222.314 242.544 224.1Z" fill="#EE504F"/>
<path d="M242.566 274.57L260.726 269.751V269.687C260.726 265.836 263.887 262.716 267.79 262.716C271.692 262.716 274.853 265.836 274.853 269.687V270.031L291.945 274.549C293.013 274.828 293.667 275.883 293.427 276.958C293.187 278.034 292.119 278.722 291.029 278.507L273.349 275.151H267.659H266.896H261.184L243.504 278.507C242.414 278.722 241.345 278.034 241.106 276.958C240.866 275.904 241.498 274.85 242.566 274.57Z" fill="#D0F3F1"/>
<path d="M287.759 283.864C289.577 283.864 291.051 282.41 291.051 280.616C291.051 278.822 289.577 277.367 287.759 277.367C285.941 277.367 284.467 278.822 284.467 280.616C284.467 282.41 285.941 283.864 287.759 283.864Z" fill="#373133"/>
<path d="M287.759 282.423C288.77 282.423 289.59 281.614 289.59 280.616C289.59 279.618 288.77 278.809 287.759 278.809C286.748 278.809 285.928 279.618 285.928 280.616C285.928 281.614 286.748 282.423 287.759 282.423Z" fill="#38B0A9"/>
<path d="M246.839 283.864C248.657 283.864 250.131 282.41 250.131 280.616C250.131 278.822 248.657 277.367 246.839 277.367C245.021 277.367 243.547 278.822 243.547 280.616C243.547 282.41 245.021 283.864 246.839 283.864Z" fill="#373133"/>
<path d="M246.839 282.423C247.85 282.423 248.67 281.614 248.67 280.616C248.67 279.618 247.85 278.809 246.839 278.809C245.828 278.809 245.008 279.618 245.008 280.616C245.008 281.614 245.828 282.423 246.839 282.423Z" fill="#38B0A9"/>
<path d="M105.527 74H160.399C161.511 74 162.427 74.9036 162.427 76.0008V115.779C162.427 116.876 161.511 117.78 160.399 117.78H105.527C104.415 117.78 103.5 116.876 103.5 115.779V76.0008C103.5 74.9036 104.415 74 105.527 74Z" fill="#D0F3F1"/>
<path d="M141.542 83.9609H106.399V102.979H141.542V83.9609Z" fill="white"/>
<path d="M149.346 77.5713H112.656V79.8732H149.346V77.5713Z" fill="#38B0A9"/>
<path d="M154.382 79.9163C155.045 79.9163 155.581 79.3865 155.581 78.733C155.581 78.0796 155.045 77.5498 154.382 77.5498C153.72 77.5498 153.183 78.0796 153.183 78.733C153.183 79.3865 153.72 79.9163 154.382 79.9163Z" fill="#38B0A9"/>
<path d="M157.543 79.9163C158.205 79.9163 158.742 79.3865 158.742 78.733C158.742 78.0796 158.205 77.5498 157.543 77.5498C156.881 77.5498 156.344 78.0796 156.344 78.733C156.344 79.3865 156.881 79.9163 157.543 79.9163Z" fill="#38B0A9"/>
<path d="M151.679 83.918H143.635V90.2214H151.679V83.918Z" fill="#38B0A9"/>
<path d="M158.023 83.918H153.183V85.0367H158.023V83.918Z" fill="#38B0A9"/>
<path d="M160.399 86.4565H153.183V87.5752H160.399V86.4565Z" fill="#38B0A9"/>
<path d="M158.023 92.5229H153.183V93.6417H158.023V92.5229Z" fill="#38B0A9"/>
<path d="M160.399 95.0615H153.183V96.1802H160.399V95.0615Z" fill="#38B0A9"/>
<path d="M158.023 100.978H153.183V102.097H158.023V100.978Z" fill="#38B0A9"/>
<path d="M160.399 103.517H153.183V104.635H160.399V103.517Z" fill="#38B0A9"/>
<path d="M158.023 109.433H153.183V110.551H158.023V109.433Z" fill="#38B0A9"/>
<path d="M160.399 111.971H153.183V113.09H160.399V111.971Z" fill="#38B0A9"/>
<path d="M151.679 92.4585H143.635V98.762H151.679V92.4585Z" fill="#38B0A9"/>
<path d="M151.679 101.021H143.635V107.324H151.679V101.021Z" fill="#38B0A9"/>
<path d="M151.679 109.497H143.635V115.801H151.679V109.497Z" fill="#38B0A9"/>
<path d="M130.423 104.786H106.159V106.808H130.423V104.786Z" fill="#38B0A9"/>
<path d="M108.775 113.778C110.22 113.778 111.391 112.623 111.391 111.197C111.391 109.771 110.22 108.615 108.775 108.615C107.33 108.615 106.159 109.771 106.159 111.197C106.159 112.623 107.33 113.778 108.775 113.778Z" fill="#38B0A9"/>
<path d="M122.335 108.637H113.615V110.508H122.335V108.637Z" fill="#38B0A9"/>
<path d="M110.65 77.5713H106.377V79.9378H110.65V77.5713Z" fill="#38B0A9"/>
<path d="M195.433 97.127H177.295C176.881 97.127 176.532 97.4712 176.532 97.8799V111.498C176.532 111.907 176.881 112.251 177.295 112.251H188.108L193.253 116.704V112.251H195.411C195.826 112.251 196.174 111.907 196.174 111.498V97.8799C196.196 97.4712 195.847 97.127 195.433 97.127Z" fill="#D0F3F1"/>
<path d="M243.482 87.2091C243.482 86.5637 242.937 86.0259 242.283 86.0259H217.147C216.493 86.0259 215.948 86.5637 215.948 87.2091V106.743C215.948 107.389 216.493 107.927 217.147 107.927H219.675V113.735L224.82 107.927H242.283C242.937 107.927 243.482 107.389 243.482 106.743V87.2091Z" fill="#D0F3F1"/>
<path d="M239.514 92.1143H220.329V93.8353H239.514V92.1143Z" fill="#38B0A9"/>
<path d="M239.536 95.793H220.351V97.5141H239.536V95.793Z" fill="#38B0A9"/>
<path d="M239.536 99.4932H220.351V101.214H239.536V99.4932Z" fill="#38B0A9"/>
<path d="M74.2866 129.247V136.368C74.2866 137.25 75.0061 137.938 75.8781 137.938H132.146C133.039 137.938 133.737 137.228 133.737 136.368V129.247C133.737 128.365 133.018 127.676 132.146 127.676H75.8781C75.0061 127.676 74.2866 128.386 74.2866 129.247Z" fill="#D0F3F1"/>
<path d="M74.2866 142.413V149.534C74.2866 150.416 75.0061 151.105 75.8781 151.105H132.146C133.039 151.105 133.737 150.395 133.737 149.534V142.413C133.737 141.531 133.018 140.843 132.146 140.843H75.8781C75.0061 140.843 74.2866 141.553 74.2866 142.413Z" fill="#D0F3F1"/>
<path d="M114.509 132.259H77.6658V133.356H114.509V132.259Z" fill="#38B0A9"/>
<path d="M80.1511 145.984L81.6335 146.802L81.1321 147.684L79.6061 146.802L79.6279 148.458H78.625L78.6469 146.802L77.1426 147.662L76.6194 146.78L78.1237 145.963L76.6194 145.145L77.1426 144.263L78.6469 145.145L78.625 143.489H79.6279L79.6061 145.145L81.1321 144.263L81.6335 145.145L80.1511 145.984Z" fill="#38B0A9"/>
<path d="M88.3481 145.984L89.8306 146.802L89.3291 147.684L87.8031 146.802L87.8249 148.458H86.8221L86.8439 146.802L85.3396 147.662L84.8164 146.78L86.3206 145.963L84.8164 145.145L85.3396 144.263L86.8439 145.145L86.8221 143.489H87.8249L87.8031 145.145L89.3291 144.263L89.8306 145.145L88.3481 145.984Z" fill="#38B0A9"/>
<path d="M96.5452 145.984L98.0276 146.802L97.5262 147.684L96.0002 146.802L96.0219 148.458H95.0191L95.0409 146.802L93.5367 147.662L93.0134 146.78L94.5177 145.963L93.0134 145.145L93.5367 144.263L95.0409 145.145L95.0191 143.489H96.0219L96.0002 145.145L97.5262 144.263L98.0276 145.145L96.5452 145.984Z" fill="#38B0A9"/>
<path d="M104.742 145.984L106.225 146.802L105.723 147.684L104.197 146.802L104.219 148.458H103.216L103.238 146.802L101.734 147.662L101.21 146.78L102.715 145.963L101.21 145.145L101.734 144.263L103.238 145.145L103.216 143.489H104.219L104.197 145.145L105.723 144.263L106.225 145.145L104.742 145.984Z" fill="#38B0A9"/>
<path d="M113.026 145.984L114.509 146.802L114.007 147.684L112.481 146.802L112.503 148.458H111.5L111.522 146.802L110.018 147.662L109.495 146.78L110.999 145.963L109.495 145.145L110.018 144.263L111.522 145.145L111.5 143.489H112.503L112.481 145.145L114.007 144.263L114.509 145.145L113.026 145.984Z" fill="#38B0A9"/>
<path d="M343.525 283.757H48.3438V284.833H343.525V283.757Z" fill="#373133"/>
<defs>
<filter id="filter0_d_232_1923" x="12.0837" y="89.6509" width="335.031" height="286.502" filterUnits="userSpaceOnUse" color-interpolation-filters="sRGB">
<feFlood flood-opacity="0" result="BackgroundImageFix"/>
<feColorMatrix in="SourceAlpha" type="matrix" values="0 0 0 0 0 0 0 0 0 0 0 0 0 0 0 0 0 0 127 0" result="hardAlpha"/>
<feOffset dx="-5" dy="5"/>
<feGaussianBlur stdDeviation="5"/>
<feColorMatrix type="matrix" values="0 0 0 0 0.937255 0 0 0 0 0.345098 0 0 0 0 0.345098 0 0 0 0.2 0"/>
<feBlend mode="normal" in2="BackgroundImageFix" result="effect1_dropShadow_232_1923"/>
<feBlend mode="normal" in="SourceGraphic" in2="effect1_dropShadow_232_1923" result="shape"/>
</filter>
</defs>
</svg>
